<svg xmlns="http://www.w3.org/2000/svg" xmlns:xlink="http://www.w3.org/1999/xlink" width="500" zoomAndPan="magnify" viewBox="0 0 375 374.999991" height="500" preserveAspectRatio="xMidYMid meet" version="1.0"><defs><clipPath id="13ecd9cb50"><path d="M 113 131 L 262.5 131 L 262.5 245.25 L 113 245.25 Z M 113 131 " clip-rule="nonzero"/></clipPath></defs><g clip-path="url(#13ecd9cb50)"><path fill="#9b00d1" d="M 250.3125 158.285156 L 242.394531 158.285156 L 237.640625 140.15625 C 235.9375 133.65625 229.261719 129.753906 222.761719 131.457031 L 122.90625 157.632812 C 116.40625 159.339844 112.503906 166.015625 114.207031 172.515625 L 130.078125 233.050781 C 131.199219 237.339844 134.484375 240.496094 138.457031 241.660156 C 140.664062 243.875 143.714844 245.246094 147.082031 245.246094 L 250.3125 245.246094 C 257.03125 245.246094 262.5 239.777344 262.5 233.058594 L 262.5 170.472656 C 262.5 163.753906 257.03125 158.285156 250.3125 158.285156 Z M 224.765625 139.113281 C 227.050781 138.511719 229.386719 139.878906 229.984375 142.164062 L 234.210938 158.285156 L 215.617188 158.285156 C 215.566406 157.960938 215.503906 157.632812 215.417969 157.304688 C 214.164062 152.53125 209.28125 149.675781 204.503906 150.925781 C 200.925781 151.863281 198.425781 154.84375 197.925781 158.285156 L 151.625 158.285156 Z M 121.863281 170.507812 C 121.261719 168.222656 122.628906 165.886719 124.910156 165.289062 L 138.644531 161.691406 C 136.335938 163.910156 134.894531 167.027344 134.894531 170.472656 L 134.894531 220.226562 Z M 254.585938 233.054688 C 254.585938 235.417969 252.671875 237.332031 250.3125 237.332031 L 147.082031 237.332031 C 145.082031 237.332031 143.402344 235.953125 142.9375 234.097656 C 142.851562 233.765625 142.808594 233.414062 142.808594 233.054688 L 142.808594 170.472656 C 142.808594 168.113281 144.722656 166.199219 147.082031 166.199219 L 250.3125 166.199219 C 252.671875 166.199219 254.585938 168.113281 254.585938 170.472656 Z M 254.585938 233.054688 " fill-opacity="1" fill-rule="nonzero"/></g><path fill="#9b00d1" d="M 234.035156 175.109375 C 234.449219 175.523438 234.820312 175.972656 235.148438 176.460938 C 235.472656 176.949219 235.746094 177.464844 235.972656 178.007812 C 236.195312 178.550781 236.367188 179.109375 236.480469 179.683594 C 236.59375 180.257812 236.652344 180.839844 236.652344 181.425781 C 236.652344 182.015625 236.597656 182.597656 236.480469 183.171875 C 236.367188 183.746094 236.195312 184.304688 235.972656 184.847656 C 235.75 185.390625 235.472656 185.90625 235.148438 186.394531 C 234.820312 186.882812 234.449219 187.332031 234.035156 187.746094 C 233.621094 188.164062 233.167969 188.53125 232.679688 188.859375 C 232.191406 189.183594 231.679688 189.460938 231.136719 189.683594 C 230.59375 189.910156 230.035156 190.078125 229.460938 190.195312 C 228.882812 190.308594 228.300781 190.367188 227.714844 190.367188 C 227.128906 190.367188 226.546875 190.308594 225.972656 190.195312 C 225.394531 190.078125 224.835938 189.910156 224.296875 189.683594 C 223.753906 189.460938 223.238281 189.183594 222.75 188.859375 C 222.261719 188.535156 221.8125 188.164062 221.394531 187.746094 C 220.980469 187.332031 220.609375 186.882812 220.285156 186.394531 C 219.957031 185.90625 219.683594 185.390625 219.457031 184.847656 C 219.234375 184.304688 219.0625 183.746094 218.949219 183.171875 C 218.835938 182.597656 218.777344 182.015625 218.777344 181.429688 C 218.777344 180.839844 218.835938 180.261719 218.949219 179.683594 C 219.0625 179.109375 219.234375 178.550781 219.457031 178.007812 C 219.683594 177.464844 219.957031 176.949219 220.285156 176.460938 C 220.609375 175.972656 220.980469 175.523438 221.394531 175.109375 C 221.808594 174.691406 222.261719 174.324219 222.75 173.996094 C 223.238281 173.671875 223.753906 173.394531 224.292969 173.171875 C 224.835938 172.945312 225.394531 172.777344 225.972656 172.660156 C 226.546875 172.546875 227.128906 172.492188 227.714844 172.492188 C 228.300781 172.492188 228.882812 172.546875 229.457031 172.660156 C 230.035156 172.777344 230.59375 172.945312 231.136719 173.171875 C 231.675781 173.394531 232.191406 173.671875 232.679688 173.996094 C 233.167969 174.324219 233.621094 174.691406 234.035156 175.109375 Z M 234.035156 175.109375 " fill-opacity="1" fill-rule="nonzero"/><path fill="#9b00d1" d="M 240.453125 228.414062 L 228.269531 219.910156 L 219.746094 213.960938 L 198.128906 198.871094 C 197.402344 198.363281 196.40625 198.496094 195.839844 199.179688 L 190.585938 205.480469 C 190.019531 206.160156 189.027344 206.296875 188.296875 205.789062 L 166.390625 190.546875 C 165.554688 189.964844 164.398438 190.242188 163.910156 191.136719 L 148.984375 218.722656 C 148.847656 218.972656 148.777344 219.253906 148.777344 219.535156 L 148.777344 229.816406 C 148.777344 230.757812 149.542969 231.523438 150.484375 231.523438 L 239.472656 231.523438 C 241.148438 231.523438 241.824219 229.371094 240.453125 228.414062 Z M 240.453125 228.414062 " fill-opacity="1" fill-rule="nonzero"/></svg>